<?xml version="1.0" standalone="no"?>
<!DOCTYPE svg PUBLIC "-//W3C//DTD SVG 20010904//EN"
 "http://www.w3.org/TR/2001/REC-SVG-20010904/DTD/svg10.dtd">
<svg version="1.0" xmlns="http://www.w3.org/2000/svg"
 width="1024.000000pt" height="1024.000000pt" viewBox="0 0 1024.000000 1024.000000"
 preserveAspectRatio="xMidYMid meet">

<g transform="translate(0.000000,1024.000000) scale(0.100000,-0.100000)"
fill="#000000" stroke="none">
<path d="M1208 6976 c-49 -13 -63 -21 -116 -70 -105 -96 -109 -275 -9 -384 56
-60 107 -84 192 -90 58 -4 80 0 123 18 66 28 133 101 154 167 l15 48 1619 3
1619 2 19 -52 c25 -72 104 -149 176 -173 144 -48 304 28 351 167 l18 53 1633
3 1634 2 12 -44 c29 -109 142 -192 259 -190 98 2 188 59 236 149 17 32 22 58
22 125 0 97 -16 140 -73 198 -144 143 -395 76 -449 -120 l-16 -58 -1629 0
c-1294 0 -1629 3 -1632 13 -2 6 -9 32 -16 56 -15 55 -85 132 -148 163 -64 30
-158 30 -230 -2 -71 -31 -128 -97 -149 -172 l-16 -58 -1618 0 -1617 0 -7 33
c-21 95 -103 184 -198 212 -60 18 -96 18 -159 1z m7783 -119 c79 -53 101 -142
56 -222 -32 -56 -79 -85 -139 -85 -109 0 -184 88 -164 194 21 112 157 174 247
113z"/>
<path d="M1580 6244 c-325 -87 -515 -417 -430 -748 28 -109 63 -169 150 -257
128 -129 279 -186 470 -176 86 4 186 25 217 45 8 5 12 59 13 172 1 91 1 169 1
174 -1 4 -17 -6 -36 -23 -47 -41 -82 -58 -154 -75 -134 -31 -262 30 -329 158
-24 45 -27 62 -27 146 0 81 4 102 24 140 38 74 66 104 122 135 48 27 63 30
144 30 101 0 153 -18 218 -75 l37 -32 0 180 0 179 -42 12 c-128 34 -283 41
-378 15z"/>
<path d="M2604 6241 c-215 -58 -374 -215 -430 -421 -21 -79 -24 -224 -5 -300
73 -301 361 -490 699 -459 230 21 407 141 506 344 45 92 60 172 54 293 -13
249 -164 443 -415 534 -86 31 -310 36 -409 9z m313 -293 c86 -32 155 -105 182
-193 25 -81 26 -114 5 -185 -22 -73 -57 -125 -110 -163 -141 -100 -307 -88
-425 32 -113 115 -124 277 -29 411 75 105 242 149 377 98z"/>
<path d="M6270 5670 l0 -580 363 0 c200 0 366 2 368 4 2 2 3 63 1 135 l-3 131
-215 0 -214 0 0 445 0 445 -150 0 -150 0 0 -580z m250 75 l0 -445 215 0 215 0
0 -80 0 -80 -315 0 -315 0 0 525 0 525 100 0 100 0 0 -445z"/>
<path d="M7250 5670 l0 -580 160 0 160 0 0 580 0 580 -160 0 -160 0 0 -580z
m270 -5 l0 -525 -110 0 -110 0 0 525 0 525 110 0 110 0 0 -525z"/>
<path d="M7857 6243 c-4 -3 -7 -264 -7 -580 l0 -573 160 0 160 0 2 335 3 335
256 -332 255 -333 182 -3 182 -2 0 580 0 580 -160 0 -160 0 -2 -350 -3 -350
-45 58 c-42 54 -159 205 -287 372 -32 41 -93 118 -136 172 l-77 98 -158 0
c-87 0 -162 -3 -165 -7z m381 -153 c144 -186 184 -237 343 -445 93 -122 169
-211 180 -213 18 -3 19 9 19 377 l0 381 110 0 110 0 0 -525 0 -525 -138 0
-139 0 -50 63 c-64 80 -481 625 -501 655 -8 12 -23 22 -33 22 -18 0 -19 -14
-19 -370 l0 -370 -110 0 -110 0 0 525 0 526 132 -3 132 -3 74 -95z"/>
<path d="M3695 6228 c-2 -7 -11 -58 -20 -113 -106 -674 -155 -993 -155 -1012
0 -10 31 -13 139 -13 l139 0 5 28 c2 15 24 165 48 334 24 169 46 305 50 302 4
-2 14 -25 23 -52 9 -26 64 -174 123 -330 l107 -283 65 3 65 3 74 185 c40 102
99 253 132 335 33 83 60 148 60 145 4 -16 90 -653 90 -664 0 -3 65 -6 145 -6
80 0 145 3 145 8 0 4 -16 113 -35 242 -19 129 -56 385 -82 568 l-47 332 -152
0 c-112 0 -153 -3 -157 -12 -42 -104 -227 -591 -227 -598 0 -31 -19 1 -49 83
-29 81 -135 369 -178 485 l-16 42 -144 0 c-106 0 -145 -3 -148 -12z"/>
<path d="M5140 5665 l0 -575 150 0 150 0 0 185 0 185 115 0 c62 0 138 5 167
11 126 27 220 99 272 209 28 59 31 74 31 165 0 118 -17 176 -73 250 -21 28
-62 65 -92 83 -98 58 -124 62 -437 62 l-283 0 0 -575z m495 321 c71 -30 97
-129 53 -207 -29 -53 -69 -69 -167 -69 l-81 0 0 145 0 145 80 0 c48 0 95 -6
115 -14z"/>
<path d="M8203 4850 c-33 -13 -45 -43 -28 -66 14 -18 16 -18 29 -1 16 21 39
22 56 2 30 -36 100 -5 100 43 0 25 -27 30 -36 7 -8 -20 -21 -19 -51 5 -28 22
-37 23 -70 10z"/>
<path d="M1290 4711 c-82 -25 -151 -94 -175 -175 -33 -110 -9 -206 70 -283 62
-60 111 -78 198 -70 120 11 193 88 204 217 l6 60 -112 0 -111 0 0 -30 0 -30
75 0 c83 0 87 -4 61 -63 -20 -47 -56 -76 -107 -85 -128 -24 -229 63 -229 195
1 92 44 166 113 192 65 25 161 7 207 -39 20 -20 23 -21 46 -5 32 21 28 32 -25
72 -63 48 -150 65 -221 44z"/>
<path d="M3247 4706 c-55 -20 -103 -61 -134 -114 -25 -42 -28 -56 -28 -142 0
-103 9 -130 66 -194 36 -41 120 -76 183 -76 166 0 291 157 256 323 -32 159
-196 255 -343 203z m140 -61 c86 -26 143 -107 143 -206 0 -56 -48 -140 -95
-166 -45 -25 -140 -31 -178 -12 -76 39 -125 133 -112 217 13 90 56 142 140
168 51 16 44 16 102 -1z"/>
<path d="M4107 4704 c-99 -31 -167 -134 -167 -254 0 -159 109 -270 264 -270
55 0 127 28 164 62 26 25 27 34 8 54 -19 18 -19 18 -62 -11 -59 -40 -106 -49
-167 -31 -166 48 -193 285 -43 377 61 37 181 18 224 -35 l17 -22 22 26 22 27
-32 31 c-60 57 -156 75 -250 46z"/>
<path d="M4660 4711 c-154 -47 -235 -229 -166 -376 43 -94 111 -144 206 -152
109 -10 214 48 261 145 34 70 33 178 -4 248 -56 110 -186 168 -297 135z m143
-75 c41 -17 91 -74 107 -122 18 -54 7 -138 -25 -183 -45 -66 -139 -102 -206
-80 -114 38 -170 160 -130 280 30 93 158 146 254 105z"/>
<path d="M7690 4711 c-112 -37 -190 -143 -190 -261 0 -114 76 -223 178 -258
64 -21 70 -41 26 -78 -30 -25 -24 -52 15 -60 14 -3 32 -7 39 -10 20 -6 60 13
71 35 12 22 5 51 -13 51 -22 0 -37 17 -30 33 3 9 13 17 20 17 23 0 96 40 126
68 26 24 27 27 11 44 -21 23 -36 23 -58 -2 -10 -11 -41 -27 -68 -35 -90 -27
-185 13 -227 95 -26 51 -26 140 -1 196 52 115 200 141 298 52 17 -16 25 -18
42 -9 12 7 21 18 21 25 0 16 -49 60 -91 81 -34 18 -134 28 -169 16z m98 -603
c-7 -19 -38 -22 -38 -4 0 10 9 16 21 16 12 0 19 -5 17 -12z"/>
<path d="M8735 4704 c-166 -59 -225 -297 -108 -434 49 -57 104 -82 188 -88 63
-3 76 -1 125 25 40 21 66 44 94 86 36 52 40 63 44 137 4 75 2 85 -27 144 -18
38 -46 75 -67 91 -68 52 -168 68 -249 39z m157 -63 c136 -58 168 -246 59 -344
-45 -41 -108 -61 -154 -51 -43 9 -98 37 -120 62 -48 53 -60 164 -26 236 26 56
57 84 110 101 60 19 80 18 131 -4z"/>
<path d="M1710 4450 l0 -260 30 0 30 0 0 105 0 105 44 0 43 0 69 -105 69 -105
43 0 43 0 -76 109 c-70 101 -74 110 -55 116 12 4 34 25 51 47 24 34 29 51 29
99 0 51 -4 63 -31 93 -38 44 -79 56 -196 56 l-93 0 0 -260z m222 179 c22 -12
39 -74 29 -102 -17 -44 -49 -61 -122 -65 l-69 -4 0 89 c0 49 3 93 7 97 9 9
132 -3 155 -15z"/>
<path d="M2150 4546 c0 -188 11 -253 48 -298 67 -80 201 -90 283 -21 54 45 59
72 59 288 l0 195 -30 0 -30 0 0 -180 c0 -202 -8 -238 -59 -264 -16 -9 -52 -16
-80 -16 -58 0 -106 32 -116 79 -3 15 -8 106 -10 202 l-3 174 -31 3 -31 3 0
-165z"/>
<path d="M2680 4451 l0 -261 30 0 30 0 0 99 0 99 90 4 c101 5 132 20 162 79
24 46 23 125 -2 166 -32 53 -71 67 -197 71 l-113 4 0 -261z m241 160 c31 -32
35 -51 18 -100 -15 -43 -54 -61 -134 -61 l-65 0 0 95 0 95 76 0 c70 0 78 -2
105 -29z"/>
<path d="M5107 4688 c-3 -13 -6 -88 -6 -168 -1 -80 -4 -187 -7 -237 l-7 -93
30 0 30 0 7 77 c3 42 6 122 6 179 0 56 3 110 6 118 4 11 29 -31 71 -121 74
-157 78 -163 105 -163 15 0 35 33 92 152 60 125 74 148 79 128 3 -14 9 -103
13 -197 l7 -173 30 0 30 0 -6 163 c-4 89 -10 206 -14 260 l-6 98 -33 -3 c-32
-3 -36 -8 -102 -143 -78 -161 -91 -184 -98 -170 -3 6 -40 78 -82 160 -73 141
-79 150 -108 153 -26 3 -33 -1 -37 -20z"/>
<path d="M5720 4450 l0 -260 30 0 30 0 0 100 0 100 73 0 c137 0 202 57 194
173 -3 49 -8 62 -36 91 -41 42 -92 56 -205 56 l-86 0 0 -260z m237 166 c23
-20 28 -32 27 -67 -1 -35 -8 -48 -33 -71 -27 -24 -39 -28 -95 -28 -76 0 -76 0
-76 111 l0 79 74 0 c65 0 79 -3 103 -24z"/>
<path d="M6140 4513 c0 -178 2 -201 21 -239 26 -54 73 -84 142 -91 64 -6 115
8 159 45 53 44 58 71 58 287 l0 195 -30 0 -30 0 0 -180 c0 -159 -2 -185 -19
-219 -23 -44 -65 -66 -123 -64 -49 2 -75 17 -98 56 -18 29 -20 51 -20 220 l0
187 -30 0 -30 0 0 -197z"/>
<path d="M6610 4675 l0 -35 75 0 75 0 0 -225 0 -225 30 0 30 0 0 225 0 224 73
3 72 3 3 33 3 32 -180 0 -181 0 0 -35z"/>
<path d="M7170 4688 c-5 -13 -48 -124 -96 -248 -47 -124 -88 -231 -91 -237 -4
-9 6 -13 30 -13 33 0 35 2 57 60 13 34 30 65 40 70 9 5 61 8 114 7 l97 -2 27
-65 c26 -62 29 -65 64 -68 l37 -3 -100 248 c-55 136 -103 254 -106 261 -9 22
-62 15 -73 -10z m50 -92 c0 -3 18 -50 39 -105 l39 -101 -88 0 -88 0 41 105
c23 58 45 105 49 105 4 0 8 -2 8 -4z"/>
<path d="M8223 4673 c-23 -56 -183 -474 -183 -479 0 -2 15 -4 33 -4 31 0 33 3
56 65 27 76 26 76 161 72 l95 -2 26 -65 c24 -62 27 -65 62 -68 l36 -3 -104
257 c-58 142 -105 259 -105 261 0 2 -14 3 -31 3 -25 0 -32 -6 -46 -37z m95
-180 l40 -103 -88 0 -88 0 41 110 c22 61 43 107 47 103 4 -4 25 -54 48 -110z"/>
<path d="M2265 3922 c-3 -3 -5 -117 -5 -254 l0 -248 30 0 30 0 0 185 c0 102 3
185 8 185 4 0 66 -83 137 -185 115 -163 133 -185 158 -185 l27 0 0 250 0 250
-30 0 -30 0 0 -185 c0 -117 -4 -185 -10 -185 -5 0 -10 4 -10 9 0 5 -27 46 -59
92 -161 228 -192 267 -216 271 -14 3 -27 3 -30 0z"/>
<path d="M2905 3911 c-194 -92 -204 -378 -16 -473 166 -84 341 26 341 215 l0
37 -115 0 -115 0 0 -30 0 -30 80 0 c75 0 80 -1 80 -22 0 -12 -11 -40 -25 -63
-42 -72 -130 -94 -213 -54 -139 68 -133 287 9 359 64 33 142 19 200 -36 l26
-25 24 20 c31 25 20 45 -46 86 -63 39 -167 46 -230 16z"/>
<path d="M3664 3923 c-20 -4 -21 -11 -26 -183 -5 -152 -8 -184 -25 -212 -41
-71 -156 -74 -205 -5 -22 30 -23 43 -26 215 l-3 182 -30 0 -29 0 0 -185 c0
-203 6 -230 56 -276 58 -53 151 -64 224 -26 52 26 78 59 90 113 11 47 13 371
3 376 -5 2 -17 2 -29 1z"/>
<path d="M3972 3917 c-6 -7 -37 -84 -70 -172 -33 -88 -74 -195 -91 -238 -17
-43 -31 -80 -31 -83 0 -3 14 -4 32 -2 29 3 34 9 58 68 l26 65 105 3 106 3 27
-71 c27 -68 29 -70 63 -70 29 0 34 3 29 18 -61 161 -192 479 -200 484 -17 12
-42 9 -54 -5z m68 -184 c19 -53 37 -101 38 -105 2 -4 -32 -8 -76 -8 l-81 0 37
105 c20 58 39 105 42 105 3 0 21 -44 40 -97z"/>
<path d="M4435 3919 c-46 -13 -103 -66 -133 -123 -36 -69 -38 -189 -5 -252 81
-152 288 -182 391 -58 35 42 49 83 54 154 l3 45 -113 3 -112 3 0 -31 0 -30 75
0 75 0 0 -29 c0 -15 -10 -43 -23 -62 -68 -103 -229 -85 -290 32 -28 54 -20
163 16 218 57 86 166 104 253 42 43 -30 46 -30 70 -15 l25 17 -36 37 c-20 21
-53 42 -74 49 -44 13 -132 13 -176 0z"/>
<path d="M5265 3920 c-2 -4 -7 -118 -11 -253 l-7 -247 31 0 32 0 1 123 c1 67
4 153 8 191 l6 69 71 -151 c72 -150 72 -151 100 -143 25 6 36 25 94 151 l65
145 7 -85 c4 -47 10 -133 14 -192 l6 -108 29 0 c35 0 34 -18 17 282 l-11 216
-31 6 c-16 4 -33 3 -37 -1 -4 -5 -40 -78 -79 -163 -40 -85 -74 -157 -76 -159
-1 -2 -37 69 -80 157 -75 157 -77 160 -111 164 -19 2 -36 1 -38 -2z"/>
<path d="M6080 3672 l0 -253 28 3 27 3 5 187 5 187 135 -189 c119 -167 138
-190 163 -190 l27 0 0 254 c0 237 -1 254 -17 251 -10 -2 -24 -4 -31 -4 -10 -1
-12 -40 -10 -186 2 -102 0 -184 -4 -183 -3 2 -57 73 -119 158 -62 85 -123 170
-136 187 -17 23 -31 32 -48 31 l-25 -2 0 -254z"/>
<path d="M6727 3888 c-9 -24 -50 -133 -91 -243 -42 -110 -76 -205 -76 -212 0
-8 12 -13 29 -13 26 0 30 6 53 68 l25 67 108 0 107 0 25 -67 c24 -66 26 -68
59 -68 19 0 34 2 34 5 0 16 -195 491 -204 497 -30 20 -54 8 -69 -34z m88 -161
c20 -54 35 -101 32 -103 -2 -3 -38 -4 -79 -2 l-75 3 33 85 c18 47 35 94 38
105 3 10 7 17 10 15 2 -3 21 -49 41 -103z"/>
<path d="M7425 3922 c-3 -3 -5 -89 -5 -192 0 -165 2 -190 20 -224 74 -147 323
-118 349 40 3 22 5 114 3 207 l-3 167 -29 0 -30 0 0 -185 0 -185 -33 -36 c-40
-44 -94 -54 -147 -27 -61 31 -70 64 -70 259 l0 172 -25 4 c-13 3 -27 3 -30 0z"/>
<path d="M8493 3893 c-34 -81 -166 -429 -170 -450 -5 -20 -1 -23 25 -23 28 0
32 5 57 70 l27 71 106 -3 106 -3 26 -65 c25 -62 28 -65 63 -68 35 -3 36 -2 28
20 -31 79 -185 456 -192 471 -6 9 -21 17 -35 17 -19 0 -29 -8 -41 -37z m83
-156 c17 -45 35 -90 39 -99 6 -16 -1 -18 -78 -18 l-86 0 23 58 c13 31 31 79
40 105 10 27 21 46 24 42 3 -3 20 -43 38 -88z"/>
<path d="M8837 3924 c-4 -4 -7 -119 -7 -256 l0 -248 130 0 130 0 0 30 0 30
-100 0 -100 0 0 220 c0 127 -4 220 -9 220 -5 0 -16 2 -23 5 -8 3 -17 2 -21 -1z"/>
<path d="M1125 3670 l0 -250 148 0 147 0 0 30 0 30 -115 0 -115 0 0 85 0 84
98 3 97 3 3 28 3 27 -101 0 -101 0 3 78 3 77 110 0 110 0 3 28 3 27 -148 0
-148 0 0 -250z"/>
<path d="M1710 3670 l0 -250 140 0 140 0 0 30 0 30 -110 0 -110 0 0 220 0 220
-30 0 -30 0 0 -250z"/>
<path d="M2070 3670 l0 -250 30 0 30 0 0 250 0 250 -30 0 -30 0 0 -250z"/>
<path d="M4860 3670 l0 -250 145 0 145 0 0 30 0 30 -115 0 -115 0 0 85 0 85
95 0 95 0 0 30 0 30 -95 0 -95 0 0 74 c0 90 -1 89 133 85 l92 -3 3 27 3 27
-145 0 -146 0 0 -250z"/>
<path d="M7000 3890 l0 -30 70 0 70 0 0 -221 0 -220 31 3 31 3 -2 218 -1 217
71 0 70 0 0 30 0 30 -170 0 -170 0 0 -30z"/>
<path d="M7920 3670 l0 -250 30 0 30 0 0 100 0 100 45 0 46 0 64 -100 c65 -99
66 -100 105 -100 l40 0 -70 105 c-38 57 -70 106 -70 108 0 3 13 10 30 17 90
37 93 195 5 250 -27 17 -50 20 -144 20 l-111 0 0 -250z m225 165 c34 -33 34
-93 0 -125 -19 -18 -39 -24 -95 -28 l-70 -5 0 92 0 91 70 0 c62 0 74 -3 95
-25z"/>
</g>
</svg>
